<svg id="visual" viewBox="0 0 1200 900" width="1200" height="900" xmlns="http://www.w3.org/2000/svg" xmlns:xlink="http://www.w3.org/1999/xlink" version="1.1"><rect x="0" y="0" width="1200" height="900" fill="#fffdf5"></rect><defs><linearGradient id="grad1_0" x1="25%" y1="100%" x2="100%" y2="0%"><stop offset="23.333333333333336%" stop-color="#fffdf5" stop-opacity="1"></stop><stop offset="76.66666666666666%" stop-color="#fffdf5" stop-opacity="1"></stop></linearGradient></defs><defs><linearGradient id="grad2_0" x1="0%" y1="100%" x2="75%" y2="0%"><stop offset="23.333333333333336%" stop-color="#fffdf5" stop-opacity="1"></stop><stop offset="76.66666666666666%" stop-color="#fffdf5" stop-opacity="1"></stop></linearGradient></defs><g transform="translate(1200, 900)"><path d="M-637.5 0C-628.9 -45.6 -620.3 -91.3 -611.3 -139.5C-602.2 -187.8 -592.7 -238.7 -557.7 -268.6C-522.7 -298.5 -462.2 -307.4 -433.9 -346C-405.7 -384.6 -409.7 -452.9 -378.5 -474.6C-347.2 -496.2 -280.6 -471.3 -238.2 -494.6C-195.8 -518 -177.5 -589.7 -141.9 -621.5C-106.2 -653.4 -53.1 -645.4 0 -637.5L0 0Z" fill="#003314"></path></g><g transform="translate(0, 0)"><path d="M637.5 0C625.3 44.6 613 89.2 605.4 138.2C597.8 187.2 594.9 240.5 560.4 269.9C525.9 299.3 459.9 304.7 434.7 346.7C409.5 388.7 425.1 467.3 397.5 498.4C369.8 529.6 298.9 513.3 247.7 514.5C196.6 515.6 165.3 534.2 127.3 557.7C89.3 581.1 44.6 609.3 0 637.5L0 0Z" fill="#003314"></path></g></svg>