<svg id="visual" viewBox="0 0 1200 900" width="1200" height="900" xmlns="http://www.w3.org/2000/svg" xmlns:xlink="http://www.w3.org/1999/xlink" version="1.1"><rect x="0" y="0" width="1200" height="900" fill="#fffdf5"></rect><defs><linearGradient id="grad1_0" x1="25%" y1="0%" x2="100%" y2="100%"><stop offset="23.333333333333336%" stop-color="#fffdf5" stop-opacity="1"></stop><stop offset="76.66666666666666%" stop-color="#fffdf5" stop-opacity="1"></stop></linearGradient></defs><defs><linearGradient id="grad2_0" x1="0%" y1="0%" x2="75%" y2="100%"><stop offset="23.333333333333336%" stop-color="#fffdf5" stop-opacity="1"></stop><stop offset="76.66666666666666%" stop-color="#fffdf5" stop-opacity="1"></stop></linearGradient></defs><g transform="translate(1200, 0)"><path d="M0 562.5C-41.2 531 -82.4 499.5 -131.2 489.7C-180 479.9 -236.5 491.8 -271 469.4C-305.5 447 -318.2 390.4 -357.8 357.8C-397.4 325.2 -463.9 316.5 -487.1 281.3C-510.3 246 -490.2 184.1 -495.5 132.8C-500.9 81.5 -531.7 40.7 -562.5 0L0 0Z" fill="#003314"></path></g><g transform="translate(0, 900)"><path d="M0 -562.5C53.6 -566.8 107.2 -571.1 145.6 -543.3C184 -515.6 207.2 -455.7 248.5 -430.4C289.8 -405.1 349.2 -414.4 394.6 -394.6C439.9 -374.8 471.1 -325.9 477.2 -275.5C483.3 -225.1 464.2 -173.2 474.3 -127.1C484.3 -80.9 523.4 -40.5 562.5 0L0 0Z" fill="#003314"></path></g></svg>